<svg xmlns="http://www.w3.org/2000/svg" xmlns:xlink="http://www.w3.org/1999/xlink" viewBox="0 0 280.1 95.3"><defs><style>.cls-1{fill:url(#linear-gradient);}.cls-2{fill:#2b2b2b;}.cls-3{fill:#fff;}</style><linearGradient id="linear-gradient" x1="64.95" y1="85.15" x2="21.65" y2="10.15" gradientUnits="userSpaceOnUse"><stop offset="0" stop-color="#4a00e0"/><stop offset="0.4" stop-color="#6c17e1"/><stop offset="0.77" stop-color="#8527e2"/><stop offset="1" stop-color="#8e2de2"/></linearGradient></defs><g id="Layer_2" data-name="Layer 2"><g id="Layer_1-2" data-name="Layer 1"><g id="logo-ics"><path class="cls-1" d="M79.67,76.65a15.37,15.37,0,0,0,6.93-12v-34a15.37,15.37,0,0,0-6.93-12l-29.44-17a15.38,15.38,0,0,0-13.86,0l-29.44,17A15.37,15.37,0,0,0,0,30.65v34a15.37,15.37,0,0,0,6.93,12l29.44,17a15.38,15.38,0,0,0,13.86,0Z"/><path class="cls-2" d="M112.49,57.18a10.62,10.62,0,0,1-3.5-1.57l1.6-3.64a12.16,12.16,0,0,0,3,1.38,11.87,11.87,0,0,0,3.28.47,5.63,5.63,0,0,0,2.56-.46,1.42,1.42,0,0,0,.88-1.3,1.38,1.38,0,0,0-.8-1.23,11.13,11.13,0,0,0-3-1,17.53,17.53,0,0,1-4.34-1.4,5.13,5.13,0,0,1-2.2-1.9,5.3,5.3,0,0,1-.63-2.69,5.51,5.51,0,0,1,1-3.26,6.82,6.82,0,0,1,2.88-2.27,10.49,10.49,0,0,1,4.27-.83,14.29,14.29,0,0,1,4.13.61,8.71,8.71,0,0,1,3.13,1.55l-1.57,3.64a9.85,9.85,0,0,0-5.66-1.85,4.26,4.26,0,0,0-2.29.55,1.63,1.63,0,0,0-.87,1.44,1.22,1.22,0,0,0,.31.87,3.14,3.14,0,0,0,1.14.66,16.89,16.89,0,0,0,2.5.65,16.89,16.89,0,0,1,4.22,1.42A5.39,5.39,0,0,1,124.76,49a5,5,0,0,1,.64,2.6,5.33,5.33,0,0,1-2.24,4.55,10.52,10.52,0,0,1-6.3,1.64A16.67,16.67,0,0,1,112.49,57.18Z"/><path class="cls-2" d="M128.31,57.52V37.78h14v4h-9V45.5h8.45v4h-8.45v4.09h9v4Z"/><path class="cls-2" d="M161,37.78h4V57.52h-4.49V47.16l-3.8,7.08h-3.31l-3.78-6.91,0,10.19h-4.47V37.78h4L155.08,49Z"/><path class="cls-2" d="M168.6,57.52V37.78h5.16V57.52Z"/><path class="cls-2" d="M190.14,37.78H195V57.52h-3.81l-9-11.29V57.52h-4.79V37.78h3.75l9,11.28Z"/><path class="cls-2" d="M213.57,57.52l-1.76-4.09h-8.74l-1.76,4.09h-5.18l9.21-19.74h4.09l9.24,19.74Zm-8.85-8h5.44l-2.72-6.32ZM208.9,36.1h-3l2.91-4.4h4.46Z"/><path class="cls-2" d="M237.6,57.52h-5.66l-3.42-6.3a2.2,2.2,0,0,0-2-1.1h-1.57v7.4h-5.07V37.78h9.41a8,8,0,0,1,5.39,1.55,5.61,5.61,0,0,1,1.81,4.5,5.93,5.93,0,0,1-1.23,3.79,6,6,0,0,1-3.48,2.08,4,4,0,0,1,2.72,2.22ZM229.67,31.7h3.59l-3.84,4.4h-2.74l-3.84-4.4h3.58l1.63,2.19Zm1.22,14a2,2,0,0,0,.74-1.74,2.05,2.05,0,0,0-.74-1.77,4.18,4.18,0,0,0-2.45-.55h-3.58v4.59h3.58A4.36,4.36,0,0,0,230.89,45.73Z"/><path class="cls-2" d="M251.86,56.51a8.58,8.58,0,0,1-3.5-3.56,12.17,12.17,0,0,1,0-10.62,8.61,8.61,0,0,1,3.5-3.55,11,11,0,0,1,5.36-1.26,12,12,0,0,1,3.74.59,8.64,8.64,0,0,1,3,1.57l-1.6,3.64a8.59,8.59,0,0,0-5-1.71,4.58,4.58,0,0,0-3.69,1.51,6.87,6.87,0,0,0-1.27,4.51,6.93,6.93,0,0,0,1.27,4.53,4.56,4.56,0,0,0,3.69,1.52,8.59,8.59,0,0,0,5-1.71l1.6,3.64a8.47,8.47,0,0,1-3,1.57,12,12,0,0,1-3.74.59A10.92,10.92,0,0,1,251.86,56.51Z"/><path class="cls-2" d="M280.1,45h-1.9l-1,5.07h2.29v3H276.6l-.9,4.46h-3.19l.9-4.46h-2.47l-.89,4.46h-3.22l.89-4.46h-1.34v-3h1.93l1-5.07H267V42h2.94l.84-4.22H274L273.13,42h2.46l.84-4.22h3.22L278.81,42h1.29ZM274,50.07,275,45h-2.46l-1,5.07Z"/><path class="cls-3" d="M18,58.74v-24h6.26v24Z"/><path class="cls-3" d="M33.71,57.52a10.35,10.35,0,0,1-4.25-4.32A13.53,13.53,0,0,1,28,46.74a13.43,13.43,0,0,1,1.48-6.44A10.36,10.36,0,0,1,33.71,36a13.27,13.27,0,0,1,6.51-1.53,14.47,14.47,0,0,1,4.54.71,10.6,10.6,0,0,1,3.59,1.9L46.41,41.5a10.45,10.45,0,0,0-6.06-2.07,5.5,5.5,0,0,0-4.47,1.84,8.32,8.32,0,0,0-1.54,5.47,8.38,8.38,0,0,0,1.54,5.49,5.47,5.47,0,0,0,4.47,1.85A10.45,10.45,0,0,0,46.41,52l1.94,4.42a10.43,10.43,0,0,1-3.59,1.9,14.47,14.47,0,0,1-4.54.72A13.27,13.27,0,0,1,33.71,57.52Z"/><path class="cls-3" d="M54.47,58.33a12.8,12.8,0,0,1-4.25-1.9L52.15,52a14.76,14.76,0,0,0,3.71,1.67,14.24,14.24,0,0,0,4,.57A6.8,6.8,0,0,0,63,53.69,1.73,1.73,0,0,0,64,52.11a1.69,1.69,0,0,0-1-1.49,13.75,13.75,0,0,0-3.69-1.16,21.58,21.58,0,0,1-5.27-1.7,6.34,6.34,0,0,1-2.67-2.31,6.46,6.46,0,0,1-.76-3.27,6.67,6.67,0,0,1,1.24-4,8.34,8.34,0,0,1,3.5-2.75,12.68,12.68,0,0,1,5.19-1,17.21,17.21,0,0,1,5,.73,10.56,10.56,0,0,1,3.79,1.88l-1.9,4.42a12,12,0,0,0-6.87-2.24,5.19,5.19,0,0,0-2.79.66,2,2,0,0,0-1,1.75,1.49,1.49,0,0,0,.37,1.06,3.75,3.75,0,0,0,1.4.8,21.25,21.25,0,0,0,3,.8A20.47,20.47,0,0,1,66.71,46a6.63,6.63,0,0,1,2.65,2.33,6.15,6.15,0,0,1,.78,3.16,6.48,6.48,0,0,1-2.72,5.53c-1.82,1.33-4.36,2-7.65,2A19.86,19.86,0,0,1,54.47,58.33Z"/></g></g></g></svg>